<svg width="400" height="400" viewBox="0 0 400 400" fill="none" xmlns="http://www.w3.org/2000/svg">
<g filter="url(#filter0_d)">
<path d="M157.234 68V74.6797C147.956 76.2568 141.115 79.7126 136.708 85.0471C132.301 90.3816 130.098 96.0639 130.098 102.094C130.098 108.496 131.165 116.428 133.298 125.891C135.618 136.003 136.777 144.492 136.777 151.357C136.777 158.964 134.644 166.293 130.376 173.344C126.108 180.395 121.052 185.753 115.208 189.417C109.363 193.082 101.431 196.352 91.4111 199.228C108.667 204.516 120.588 211.683 127.175 220.728C133.762 229.774 137.056 238.749 137.056 247.656C137.056 253.037 135.942 260.644 133.716 270.478C131.396 280.312 130.237 288.615 130.237 295.388C130.237 311.53 139.236 321.179 157.234 324.333V331.013C148.977 331.013 142.274 330.41 137.125 329.204C131.976 327.998 126.248 325.191 119.939 320.784C113.63 316.378 108.69 310.881 105.118 304.294C101.547 297.707 99.7607 291.027 99.7607 284.255C99.7607 278.039 101.199 269.04 104.075 257.258C106.209 248.444 107.275 240.837 107.275 234.436C107.275 217.18 98.1837 206.975 80 203.82V195.053C89.7413 193.569 96.7224 189.672 100.944 183.364C105.165 177.055 107.275 170.329 107.275 163.186C107.275 156.877 106.255 149.594 104.214 141.337C101.338 129.648 99.8999 120.927 99.8999 115.175C99.8999 103.95 104.794 93.3504 114.581 83.3772C124.369 73.404 138.586 68.2783 157.234 68Z" fill="black"/>
</g>
<path d="M157.234 68V74.6797C147.956 76.2568 141.115 79.7126 136.708 85.0471C132.301 90.3816 130.098 96.0639 130.098 102.094C130.098 108.496 131.165 116.428 133.298 125.891C135.618 136.003 136.777 144.492 136.777 151.357C136.777 158.964 134.644 166.293 130.376 173.344C126.108 180.395 121.052 185.753 115.208 189.417C109.363 193.082 101.431 196.352 91.4111 199.228C108.667 204.516 120.588 211.683 127.175 220.728C133.762 229.774 137.056 238.749 137.056 247.656C137.056 253.037 135.942 260.644 133.716 270.478C131.396 280.312 130.237 288.615 130.237 295.388C130.237 311.53 139.236 321.179 157.234 324.333V331.013C148.977 331.013 142.274 330.41 137.125 329.204C131.976 327.998 126.248 325.191 119.939 320.784C113.63 316.378 108.69 310.881 105.118 304.294C101.547 297.707 99.7607 291.027 99.7607 284.255C99.7607 278.039 101.199 269.04 104.075 257.258C106.209 248.444 107.275 240.837 107.275 234.436C107.275 217.18 98.1837 206.975 80 203.82V195.053C89.7413 193.569 96.7224 189.672 100.944 183.364C105.165 177.055 107.275 170.329 107.275 163.186C107.275 156.877 106.255 149.594 104.214 141.337C101.338 129.648 99.8999 120.927 99.8999 115.175C99.8999 103.95 104.794 93.3504 114.581 83.3772C124.369 73.404 138.586 68.2783 157.234 68Z" fill="#95DAA4"/>
<g filter="url(#filter1_d)">
<path d="M243 68V74.6797C252.277 76.2568 259.119 79.7126 263.526 85.0471C267.933 90.3816 270.136 96.0639 270.136 102.094C270.136 108.496 269.069 116.428 266.936 125.891C264.616 136.003 263.457 144.492 263.457 151.357C263.457 158.964 265.59 166.293 269.858 173.344C274.126 180.395 279.182 185.753 285.026 189.417C290.871 193.082 298.803 196.352 308.823 199.228C291.567 204.516 279.646 211.683 273.059 220.728C266.472 229.774 263.178 238.749 263.178 247.656C263.178 253.037 264.291 260.644 266.518 270.478C268.837 280.312 269.997 288.615 269.997 295.388C269.997 311.53 260.998 321.179 243 324.333V331.013C251.257 331.013 257.96 330.41 263.109 329.204C268.258 327.998 273.986 325.191 280.295 320.784C286.604 316.378 291.544 310.881 295.115 304.294C298.687 297.707 300.473 291.027 300.473 284.255C300.473 278.039 299.035 269.04 296.159 257.258C294.025 248.444 292.958 240.837 292.958 234.436C292.958 217.18 302.05 206.975 320.234 203.82V195.053C310.493 193.569 303.511 189.672 299.29 183.364C295.069 177.055 292.958 170.329 292.958 163.186C292.958 156.877 293.979 149.594 296.02 141.337C298.896 129.648 300.334 120.927 300.334 115.175C300.334 103.95 295.44 93.3504 285.653 83.3772C275.865 73.404 261.648 68.2783 243 68Z" fill="black"/>
</g>
<path d="M243 68V74.6797C252.277 76.2568 259.119 79.7126 263.526 85.0471C267.933 90.3816 270.136 96.0639 270.136 102.094C270.136 108.496 269.069 116.428 266.936 125.891C264.616 136.003 263.457 144.492 263.457 151.357C263.457 158.964 265.59 166.293 269.858 173.344C274.126 180.395 279.182 185.753 285.026 189.417C290.871 193.082 298.803 196.352 308.823 199.228C291.567 204.516 279.646 211.683 273.059 220.728C266.472 229.774 263.178 238.749 263.178 247.656C263.178 253.037 264.291 260.644 266.518 270.478C268.837 280.312 269.997 288.615 269.997 295.388C269.997 311.53 260.998 321.179 243 324.333V331.013C251.257 331.013 257.96 330.41 263.109 329.204C268.258 327.998 273.986 325.191 280.295 320.784C286.604 316.378 291.544 310.881 295.115 304.294C298.687 297.707 300.473 291.027 300.473 284.255C300.473 278.039 299.035 269.04 296.159 257.258C294.025 248.444 292.958 240.837 292.958 234.436C292.958 217.18 302.05 206.975 320.234 203.82V195.053C310.493 193.569 303.511 189.672 299.29 183.364C295.069 177.055 292.958 170.329 292.958 163.186C292.958 156.877 293.979 149.594 296.02 141.337C298.896 129.648 300.334 120.927 300.334 115.175C300.334 103.95 295.44 93.3504 285.653 83.3772C275.865 73.404 261.648 68.2783 243 68Z" fill="#95DAA4"/>
<defs>
<filter id="filter0_d" x="76" y="68" width="85.2339" height="271.013" filterUnits="userSpaceOnUse" color-interpolation-filters="sRGB">
<feFlood flood-opacity="0" result="BackgroundImageFix"/>
<feColorMatrix in="SourceAlpha" type="matrix" values="0 0 0 0 0 0 0 0 0 0 0 0 0 0 0 0 0 0 127 0"/>
<feOffset dy="4"/>
<feGaussianBlur stdDeviation="2"/>
<feColorMatrix type="matrix" values="0 0 0 0 0 0 0 0 0 0 0 0 0 0 0 0 0 0 0.5 0"/>
<feBlend mode="normal" in2="BackgroundImageFix" result="effect1_dropShadow"/>
<feBlend mode="normal" in="SourceGraphic" in2="effect1_dropShadow" result="shape"/>
</filter>
<filter id="filter1_d" x="239" y="68" width="85.2339" height="271.013" filterUnits="userSpaceOnUse" color-interpolation-filters="sRGB">
<feFlood flood-opacity="0" result="BackgroundImageFix"/>
<feColorMatrix in="SourceAlpha" type="matrix" values="0 0 0 0 0 0 0 0 0 0 0 0 0 0 0 0 0 0 127 0"/>
<feOffset dy="4"/>
<feGaussianBlur stdDeviation="2"/>
<feColorMatrix type="matrix" values="0 0 0 0 0 0 0 0 0 0 0 0 0 0 0 0 0 0 0.5 0"/>
<feBlend mode="normal" in2="BackgroundImageFix" result="effect1_dropShadow"/>
<feBlend mode="normal" in="SourceGraphic" in2="effect1_dropShadow" result="shape"/>
</filter>
</defs>
</svg>
