<svg width="59" height="14" viewBox="0 0 59 14" fill="none" xmlns="http://www.w3.org/2000/svg">
<path d="M1.912 7.984C2.30667 8.37867 3.464 9.44 5.384 11.168C5.192 11.5307 4.93067 11.712 4.6 11.712C4.45067 11.712 4.31733 11.6533 4.2 11.536L0.696 7.984L4.2 4.624C4.33867 4.50667 4.472 4.448 4.6 4.448C4.76 4.448 4.90933 4.50667 5.048 4.624C5.19733 4.73067 5.30933 4.85333 5.384 4.992C5.20267 5.152 4.82933 5.47733 4.264 5.968C3.69867 6.448 3.17067 6.896 2.68 7.312C2.2 7.728 1.944 7.952 1.912 7.984ZM9.6265 10.192C9.39183 11.7493 9.23183 12.9867 9.1465 13.904C9.00783 13.936 8.87983 13.952 8.7625 13.952C8.4105 13.952 8.2345 13.8027 8.2345 13.504C8.2345 13.4293 8.73583 10.224 9.7385 3.888C9.97317 2.33067 10.1332 1.09333 10.2185 0.176L10.5545 0.127999C10.9385 0.127999 11.1305 0.271999 11.1305 0.559999L9.6265 10.192ZM17.8955 7.712C17.5328 6.76267 16.9835 5.15733 16.2475 2.896C16.1515 3.14133 15.9062 3.824 15.5115 4.944C15.1168 6.064 14.7702 6.98667 14.4715 7.712C15.3035 7.73333 15.9542 7.744 16.4235 7.744C17.0848 7.744 17.5755 7.73333 17.8955 7.712ZM16.0875 8.688C15.8102 8.688 15.1382 8.67733 14.0715 8.656C13.3568 10.4587 12.9088 11.6853 12.7275 12.336C12.3755 12.2613 12.1248 12.176 11.9755 12.08C11.8368 11.984 11.7675 11.856 11.7675 11.696C11.7675 11.568 11.9915 10.9707 12.4395 9.904C12.8982 8.83733 13.4528 7.48267 14.1035 5.84C14.7542 4.18667 15.2662 2.72 15.6395 1.44C15.8422 1.408 16.0662 1.392 16.3115 1.392C16.5782 1.392 16.7648 1.44 16.8715 1.536C16.9782 1.62133 17.0902 1.856 17.2075 2.24C17.8795 4.40533 18.4768 6.16533 18.9995 7.52C19.8315 9.696 20.4288 11.136 20.7915 11.84C20.4928 12.0533 20.2368 12.16 20.0235 12.16C19.6822 12.16 19.4528 12.016 19.3355 11.728C19.1328 11.2053 18.7648 10.1813 18.2315 8.656C17.0368 8.67733 16.3222 8.688 16.0875 8.688ZM21.62 11.344C21.7373 10.6293 21.8067 9.232 21.828 7.152C21.828 5.72267 21.7747 4.592 21.668 3.76C22.18 3.664 22.868 3.616 23.732 3.616C24.4253 3.616 25.044 3.68533 25.588 3.824C26.1427 3.96267 26.6493 4.192 27.108 4.512C27.5773 4.82133 27.9347 5.25867 28.18 5.824C28.436 6.38933 28.564 7.06667 28.564 7.856C28.564 9.09333 28.2067 10.112 27.492 10.912C26.7773 11.712 25.764 12.112 24.452 12.112C23.2253 12.112 22.2813 11.856 21.62 11.344ZM22.932 4.528C22.964 4.95467 22.98 5.61067 22.98 6.496C22.98 8.30933 22.9213 9.744 22.804 10.8C23.2413 11.088 23.796 11.232 24.468 11.232C24.9907 11.232 25.444 11.136 25.828 10.944C26.212 10.752 26.5053 10.496 26.708 10.176C26.9107 9.84533 27.0547 9.50933 27.14 9.168C27.236 8.816 27.284 8.45333 27.284 8.08C27.284 6.88533 26.9747 5.98933 26.356 5.392C25.748 4.784 24.8733 4.48 23.732 4.48C23.6573 4.48 23.5773 4.48533 23.492 4.496C23.4067 4.496 23.3053 4.50133 23.188 4.512C23.0813 4.52267 22.996 4.528 22.932 4.528ZM36.7361 1.328C37.0348 1.264 37.2588 1.232 37.4081 1.232C37.6535 1.232 37.8295 1.29067 37.9361 1.408C38.0428 1.52533 38.0961 1.728 38.0961 2.016C38.0961 3.18933 37.7228 4.76267 36.9761 6.736C36.2295 8.69867 35.4668 10.176 34.6881 11.168C34.4215 11.52 34.1975 11.7547 34.0161 11.872C33.8348 11.9893 33.6215 12.048 33.3761 12.048C33.2588 12.048 33.0828 12.0373 32.8481 12.016C32.5068 10.2987 31.9255 8.33067 31.1041 6.112C30.2828 3.89333 29.5841 2.50133 29.0081 1.936C29.4561 1.54133 29.8401 1.344 30.1601 1.344C30.4908 1.344 30.7521 1.57333 30.9441 2.032C31.3601 2.98133 31.8508 4.33067 32.4161 6.08C32.9815 7.82933 33.4241 9.34933 33.7441 10.64C34.3735 9.936 35.0401 8.65067 35.7441 6.784C36.4481 4.90667 36.8001 3.35467 36.8001 2.128C36.8001 1.744 36.7788 1.47733 36.7361 1.328ZM39.818 9.12V6.624C39.818 5.51467 39.786 4.55467 39.722 3.744C39.914 3.712 40.1167 3.696 40.33 3.696C40.8313 3.696 41.082 3.856 41.082 4.176C41.082 4.21867 41.0713 4.384 41.05 4.672C41.0393 4.96 41.0233 5.31733 41.002 5.744C40.9807 6.17067 40.97 6.576 40.97 6.96V9.472C40.97 10.592 41.0553 11.4133 41.226 11.936C41.066 12 40.8313 12.032 40.522 12.032C40.234 12.032 40.0367 11.9787 39.93 11.872C39.834 11.7653 39.786 11.584 39.786 11.328C39.786 11.2 39.7913 10.8747 39.802 10.352C39.8127 9.82933 39.818 9.41867 39.818 9.12ZM50.3073 12C50.0939 12.0213 49.9286 12.032 49.8113 12.032C49.4486 12.032 49.1926 11.9253 49.0433 11.712C48.7233 11.2213 48.1206 10.24 47.2352 8.768C46.3499 7.296 45.6246 6.14933 45.0593 5.328C45.0806 6.128 45.0913 7.38667 45.0913 9.104C45.0913 10.512 45.1766 11.4613 45.3473 11.952C45.1553 12.0053 44.9686 12.032 44.7873 12.032C44.4993 12.032 44.3073 11.9787 44.2113 11.872C44.1153 11.7653 44.0673 11.584 44.0673 11.328C44.0673 11.2 44.0673 10.8747 44.0673 10.352C44.0779 9.82933 44.0833 9.41867 44.0833 9.12V6.624C44.0833 5.23733 44.0033 4.288 43.8433 3.776C44.0353 3.712 44.2646 3.68 44.5312 3.68C44.8619 3.68 45.1393 3.80267 45.3633 4.048C45.7793 4.47467 46.3873 5.31733 47.1873 6.576C47.9873 7.83467 48.6913 9.024 49.2993 10.144C49.2459 9.376 49.2193 8.22933 49.2193 6.704C49.2193 5.552 49.1873 4.56 49.1233 3.728C49.2939 3.70667 49.4486 3.696 49.5873 3.696C50.0779 3.696 50.3233 3.856 50.3233 4.176C50.3233 4.21867 50.3126 4.384 50.2913 4.672C50.2806 4.96 50.2646 5.31733 50.2433 5.744C50.2326 6.17067 50.2273 6.576 50.2273 6.96V9.104C50.2273 10.352 50.2539 11.3173 50.3073 12ZM57.1733 7.984C57.1413 7.952 56.8799 7.728 56.3893 7.312C55.9093 6.896 55.3866 6.448 54.8213 5.968C54.2559 5.47733 53.8826 5.152 53.7013 4.992C53.7759 4.85333 53.8826 4.73067 54.0213 4.624C54.1706 4.50667 54.3253 4.448 54.4853 4.448C54.6133 4.448 54.7466 4.50667 54.8853 4.624L58.3893 7.984L54.8853 11.536C54.7679 11.6533 54.6346 11.712 54.4853 11.712C54.1546 11.712 53.8933 11.5307 53.7013 11.168C55.6213 9.44 56.7786 8.37867 57.1733 7.984Z" fill="#77FA93"/>
</svg>
