<svg width="55" height="12" viewBox="0 0 55 12" fill="none" xmlns="http://www.w3.org/2000/svg">
<path d="M1.912 6.984C2.30667 7.37867 3.464 8.44 5.384 10.168C5.192 10.5307 4.93067 10.712 4.6 10.712C4.45067 10.712 4.31733 10.6533 4.2 10.536L0.696 6.984L4.2 3.624C4.33867 3.50667 4.472 3.448 4.6 3.448C4.76 3.448 4.90933 3.50667 5.048 3.624C5.19733 3.73067 5.30933 3.85333 5.384 3.992C5.20267 4.152 4.82933 4.47733 4.264 4.968C3.69867 5.448 3.17067 5.896 2.68 6.312C2.2 6.728 1.944 6.952 1.912 6.984ZM13.7705 6.712C13.4078 5.76267 12.8585 4.15733 12.1225 1.896C12.0265 2.14133 11.7812 2.824 11.3865 3.944C10.9918 5.064 10.6452 5.98667 10.3465 6.712C11.1785 6.73333 11.8292 6.744 12.2985 6.744C12.9598 6.744 13.4505 6.73333 13.7705 6.712ZM11.9625 7.688C11.6852 7.688 11.0132 7.67733 9.9465 7.656C9.23183 9.45867 8.78383 10.6853 8.6025 11.336C8.2505 11.2613 7.99983 11.176 7.8505 11.08C7.71183 10.984 7.6425 10.856 7.6425 10.696C7.6425 10.568 7.8665 9.97067 8.3145 8.904C8.77317 7.83733 9.32783 6.48267 9.9785 4.84C10.6292 3.18667 11.1412 1.72 11.5145 0.44C11.7172 0.407999 11.9412 0.391999 12.1865 0.391999C12.4532 0.391999 12.6398 0.439999 12.7465 0.535999C12.8532 0.621333 12.9652 0.856 13.0825 1.24C13.7545 3.40533 14.3518 5.16533 14.8745 6.52C15.7065 8.696 16.3038 10.136 16.6665 10.84C16.3678 11.0533 16.1118 11.16 15.8985 11.16C15.5572 11.16 15.3278 11.016 15.2105 10.728C15.0078 10.2053 14.6398 9.18133 14.1065 7.656C12.9118 7.67733 12.1972 7.688 11.9625 7.688ZM17.495 10.344C17.6123 9.62933 17.6817 8.232 17.703 6.152C17.703 4.72267 17.6497 3.592 17.543 2.76C18.055 2.664 18.743 2.616 19.607 2.616C20.3003 2.616 20.919 2.68533 21.463 2.824C22.0177 2.96267 22.5243 3.192 22.983 3.512C23.4523 3.82133 23.8097 4.25867 24.055 4.824C24.311 5.38933 24.439 6.06667 24.439 6.856C24.439 8.09333 24.0817 9.112 23.367 9.912C22.6523 10.712 21.639 11.112 20.327 11.112C19.1003 11.112 18.1563 10.856 17.495 10.344ZM18.807 3.528C18.839 3.95467 18.855 4.61067 18.855 5.496C18.855 7.30933 18.7963 8.744 18.679 9.8C19.1163 10.088 19.671 10.232 20.343 10.232C20.8657 10.232 21.319 10.136 21.703 9.944C22.087 9.752 22.3803 9.496 22.583 9.176C22.7857 8.84533 22.9297 8.50933 23.015 8.168C23.111 7.816 23.159 7.45333 23.159 7.08C23.159 5.88533 22.8497 4.98933 22.231 4.392C21.623 3.784 20.7483 3.48 19.607 3.48C19.5323 3.48 19.4523 3.48533 19.367 3.496C19.2817 3.496 19.1803 3.50133 19.063 3.512C18.9563 3.52267 18.871 3.528 18.807 3.528ZM32.6111 0.327999C32.9098 0.263999 33.1338 0.231999 33.2831 0.231999C33.5285 0.231999 33.7045 0.290666 33.8111 0.407999C33.9178 0.525333 33.9711 0.728 33.9711 1.016C33.9711 2.18933 33.5978 3.76267 32.8511 5.736C32.1045 7.69867 31.3418 9.176 30.5631 10.168C30.2965 10.52 30.0725 10.7547 29.8911 10.872C29.7098 10.9893 29.4965 11.048 29.2511 11.048C29.1338 11.048 28.9578 11.0373 28.7231 11.016C28.3818 9.29867 27.8005 7.33067 26.9791 5.112C26.1578 2.89333 25.4591 1.50133 24.8831 0.936C25.3311 0.541333 25.7151 0.344 26.0351 0.344C26.3658 0.344 26.6271 0.573333 26.8191 1.032C27.2351 1.98133 27.7258 3.33067 28.2911 5.08C28.8565 6.82933 29.2991 8.34933 29.6191 9.64C30.2485 8.936 30.9151 7.65067 31.6191 5.784C32.3231 3.90667 32.6751 2.35467 32.6751 1.128C32.6751 0.743999 32.6538 0.477332 32.6111 0.327999ZM35.693 8.12V5.624C35.693 4.51467 35.661 3.55467 35.597 2.744C35.789 2.712 35.9917 2.696 36.205 2.696C36.7063 2.696 36.957 2.856 36.957 3.176C36.957 3.21867 36.9463 3.384 36.925 3.672C36.9143 3.96 36.8983 4.31733 36.877 4.744C36.8557 5.17067 36.845 5.576 36.845 5.96V8.472C36.845 9.592 36.9303 10.4133 37.101 10.936C36.941 11 36.7063 11.032 36.397 11.032C36.109 11.032 35.9117 10.9787 35.805 10.872C35.709 10.7653 35.661 10.584 35.661 10.328C35.661 10.2 35.6663 9.87467 35.677 9.352C35.6877 8.82933 35.693 8.41867 35.693 8.12ZM46.1823 11C45.9689 11.0213 45.8036 11.032 45.6863 11.032C45.3236 11.032 45.0676 10.9253 44.9183 10.712C44.5983 10.2213 43.9956 9.24 43.1102 7.768C42.2249 6.296 41.4996 5.14933 40.9343 4.328C40.9556 5.128 40.9663 6.38667 40.9663 8.104C40.9663 9.512 41.0516 10.4613 41.2223 10.952C41.0303 11.0053 40.8436 11.032 40.6623 11.032C40.3743 11.032 40.1823 10.9787 40.0863 10.872C39.9903 10.7653 39.9423 10.584 39.9423 10.328C39.9423 10.2 39.9423 9.87467 39.9423 9.352C39.9529 8.82933 39.9583 8.41867 39.9583 8.12V5.624C39.9583 4.23733 39.8783 3.288 39.7183 2.776C39.9103 2.712 40.1396 2.68 40.4062 2.68C40.7369 2.68 41.0143 2.80267 41.2383 3.048C41.6543 3.47467 42.2623 4.31733 43.0623 5.576C43.8623 6.83467 44.5663 8.024 45.1743 9.144C45.1209 8.376 45.0943 7.22933 45.0943 5.704C45.0943 4.552 45.0623 3.56 44.9983 2.728C45.1689 2.70667 45.3236 2.696 45.4623 2.696C45.9529 2.696 46.1983 2.856 46.1983 3.176C46.1983 3.21867 46.1876 3.384 46.1663 3.672C46.1556 3.96 46.1396 4.31733 46.1183 4.744C46.1076 5.17067 46.1023 5.576 46.1023 5.96V8.104C46.1023 9.352 46.1289 10.3173 46.1823 11ZM53.0483 6.984C53.0163 6.952 52.7549 6.728 52.2643 6.312C51.7843 5.896 51.2616 5.448 50.6963 4.968C50.1309 4.47733 49.7576 4.152 49.5763 3.992C49.6509 3.85333 49.7576 3.73067 49.8963 3.624C50.0456 3.50667 50.2003 3.448 50.3603 3.448C50.4883 3.448 50.6216 3.50667 50.7603 3.624L54.2643 6.984L50.7603 10.536C50.6429 10.6533 50.5096 10.712 50.3603 10.712C50.0296 10.712 49.7683 10.5307 49.5763 10.168C51.4963 8.44 52.6536 7.37867 53.0483 6.984Z" fill="#77FA93"/>
</svg>
